<svg version="1.1" id="Layer_1" xmlns="http://www.w3.org/2000/svg" xmlns:xlink="http://www.w3.org/1999/xlink" x="0px" y="0px"
	 width="100%" viewBox="0 0 2560 2107" enable-background="new 0 0 2560 2107" xml:space="preserve">
<path fill="#0A0401" opacity="1.000000" stroke="none" 
	d="
M2561.563965,1317.145996 
	C2562.000000,1332.708496 2562.000000,1347.416992 2562.000000,1363.062744 
	C2560.472412,1401.157349 2538.814453,1427.271484 2513.850098,1451.508911 
	C2506.455078,1458.688721 2500.033447,1466.845337 2491.863770,1473.245239 
	C2488.191895,1476.121704 2486.851562,1480.152222 2486.594727,1484.668335 
	C2486.292236,1489.996704 2486.373047,1495.328247 2486.372803,1500.658691 
	C2486.365234,1693.594727 2486.373047,1886.530762 2486.361572,2079.466797 
	C2486.359863,2105.999023 2486.333008,2106.000000 2459.676758,2106.000000 
	C2132.118652,2106.000000 1804.560669,2106.000244 1477.002686,2105.997314 
	C1473.004272,2105.997314 1469.001343,2106.122314 1465.008179,2105.922119 
	C1457.132202,2105.527588 1452.835083,2101.246826 1451.989136,2093.493652 
	C1451.554932,2089.515625 1451.643433,2085.506104 1451.642822,2081.507568 
	C1451.624268,1974.543091 1451.634277,1867.578491 1451.641113,1760.614014 
	C1451.641357,1756.287476 1451.504639,1751.947144 1452.143799,1748.845459 
	C1442.081421,1774.239624 1429.417480,1799.782593 1418.015991,1825.880127 
	C1407.624268,1849.666382 1397.617310,1873.617676 1387.087891,1897.343384 
	C1369.812744,1936.269653 1352.277710,1975.079590 1335.041504,2014.023438 
	C1322.519775,2042.315796 1310.371826,2070.776611 1297.067139,2098.722168 
	C1295.158691,2102.730469 1293.430542,2106.546631 1288.694458,2109.387695 
	C1287.111084,2110.000000 1286.222168,2110.000000 1284.666626,2110.000000 
	C1280.659912,2107.098633 1278.517700,2103.394775 1276.577759,2099.468262 
	C1257.848633,2061.560059 1240.152222,2023.161377 1221.963135,1984.998901 
	C1204.344727,1948.033936 1186.229736,1911.293579 1169.089966,1874.104858 
	C1149.441284,1831.472412 1128.036255,1789.676758 1108.372559,1745.990845 
	C1108.271118,1752.233276 1108.356934,1757.695557 1108.356567,1763.152100 
	C1108.349121,1867.458130 1108.352539,1971.764038 1108.348267,2076.070068 
	C1108.348145,2081.068359 1108.472046,2086.072266 1108.170532,2091.062988 
	C1107.518066,2101.863525 1103.449341,2105.698975 1092.464355,2105.981934 
	C1090.132812,2106.041992 1087.799072,2105.999512 1085.466431,2105.999512 
	C758.218994,2106.000244 430.971558,2106.000488 103.724098,2105.998535 
	C100.391731,2105.998535 97.056671,2106.080811 93.727600,2105.937012 
	C86.625488,2105.630127 82.704521,2101.852539 81.997017,2094.822021 
	C81.529388,2090.174805 81.655579,2085.499756 81.654694,2080.834961 
	C81.641678,2011.853149 81.472351,1942.870239 81.826347,1873.890381 
	C81.885010,1862.458130 78.516006,1854.007690 70.660599,1845.459717 
	C39.487732,1811.538452 17.419937,1772.386963 7.257092,1727.109985 
	C4.707585,1715.751465 4.023462,1704.083740 3.955773,1692.407349 
	C3.927033,1687.449829 4.768797,1682.396118 2.459029,1676.776733 
	C2.000000,1667.286255 2.000000,1658.572388 2.000000,1648.929321 
	C6.070002,1638.120361 4.205822,1627.588867 4.710001,1617.443848 
	C6.018031,1591.123779 13.050115,1566.312866 22.032719,1541.897583 
	C35.666496,1504.840210 54.089180,1470.240845 76.607674,1437.836182 
	C81.316048,1431.060669 81.619492,1423.600098 81.617523,1415.867310 
	C81.601662,1353.539917 81.602386,1291.212646 81.605232,1228.885254 
	C81.608818,1150.226196 81.602661,1071.567017 81.610535,992.907959 
	C81.611031,987.909058 81.574959,982.909485 81.882095,977.914673 
	C82.346100,970.368713 86.341057,966.393616 93.873024,965.900940 
	C98.534088,965.595947 103.199997,965.611938 107.865631,965.611877 
	C892.123657,965.604553 1676.381592,965.601746 2460.639648,965.616577 
	C2485.920654,965.617004 2486.332275,966.080872 2486.390869,991.438538 
	C2486.396240,993.771667 2486.608398,996.127747 2486.360352,998.434204 
	C2484.533936,1015.418457 2489.158936,1030.272461 2498.759521,1044.513550 
	C2506.151367,1055.477905 2511.937256,1067.681763 2515.965088,1080.484741 
	C2521.265869,1097.335693 2517.263428,1112.527710 2502.158203,1121.514282 
	C2489.008789,1129.337402 2485.202637,1139.360596 2486.172119,1153.723267 
	C2487.202148,1168.988037 2486.485352,1184.372925 2486.387939,1199.702759 
	C2486.342285,1206.882935 2489.073975,1211.717407 2495.654297,1214.695801 
	C2527.017090,1228.891113 2543.479004,1256.128174 2556.530762,1285.840698 
	C2560.642578,1295.201904 2560.990967,1305.919189 2561.563965,1317.145996 
z"/>
<path fill="none" opacity="0" stroke="none" 
	d="
M2562.000000,1317.062744 
	C2558.899902,1315.120483 2560.321045,1311.062134 2559.325439,1307.621338 
	C2551.997314,1282.289551 2540.175781,1259.438599 2522.399902,1239.801880 
	C2513.299561,1229.748535 2502.516846,1222.028198 2489.838379,1217.318481 
	C2484.300781,1215.261475 2482.095703,1212.366821 2482.176270,1206.329590 
	C2482.486328,1183.000610 2482.418945,1159.664062 2482.211182,1136.332886 
	C2482.164551,1131.096313 2483.393311,1127.570679 2488.528564,1125.255493 
	C2492.727051,1123.362793 2496.570068,1120.524658 2500.268799,1117.708984 
	C2513.328369,1107.766968 2516.821777,1095.107300 2510.877930,1079.728516 
	C2504.733887,1063.831177 2496.802246,1048.813232 2487.508789,1034.574707 
	C2483.874512,1029.006958 2482.079834,1023.431641 2482.218262,1016.810608 
	C2482.490234,1003.816528 2482.131836,990.809814 2482.362793,977.814148 
	C2482.455078,972.625305 2480.407227,970.441406 2475.342529,970.665100 
	C2472.681641,970.782654 2470.010254,970.657471 2467.343750,970.657471 
	C1678.352051,970.656128 889.360352,970.656006 100.368645,970.656921 
	C83.631790,970.656921 85.731560,970.035583 85.727196,985.101318 
	C85.685066,1130.433105 85.655701,1275.765015 85.830620,1421.096680 
	C85.839851,1428.765869 84.111488,1435.106567 79.768593,1441.474731 
	C60.975876,1469.031372 44.847572,1498.077515 32.231323,1529.025146 
	C17.564713,1565.002319 7.501415,1602.047729 5.671102,1641.054565 
	C5.560738,1643.406494 5.604696,1645.760498 2.725713,1647.685303 
	C2.000000,1099.333374 2.000000,550.666626 2.000000,2.000000 
	C30.153605,2.000000 58.139484,2.000000 87.062683,2.000000 
	C88.332222,2.573850 88.664452,3.147700 89.251251,4.682642 
	C90.850342,11.904800 90.413200,18.258646 90.413620,24.578760 
	C90.433502,324.198792 90.428886,623.818787 90.433052,923.438843 
	C90.433388,947.554321 90.445992,947.566956 114.709686,947.567017 
	C894.255005,947.570129 1673.800415,947.570007 2453.345703,947.567139 
	C2477.554199,947.567017 2477.566650,947.554504 2477.567139,923.388672 
	C2477.571045,624.101929 2477.567871,324.815186 2477.580811,25.528454 
	C2477.581055,19.548670 2477.290527,13.554925 2478.299316,6.621104 
	C2478.662354,5.004230 2478.832275,4.362972 2479.500977,2.860857 
	C2507.316162,2.000000 2534.632568,2.000000 2562.000000,2.000000 
	C2562.000000,440.041779 2562.000000,878.083557 2562.000000,1317.062744 
z"/>
<path fill="none" opacity="0" stroke="none" 
	d="
M1288.937256,2110.000000 
	C1292.100708,2095.862305 1299.400024,2083.091309 1305.280396,2069.717773 
	C1321.464355,2032.910767 1337.814575,1996.177002 1354.097290,1959.413452 
	C1374.005493,1914.463745 1393.932861,1869.522583 1413.811279,1824.559692 
	C1426.171875,1796.601318 1438.434082,1768.599609 1450.819580,1740.652344 
	C1451.832031,1738.367798 1452.220337,1735.509888 1455.564941,1734.035400 
	C1456.863525,1738.005493 1456.329956,1741.916748 1456.331177,1745.725708 
	C1456.368652,1859.636108 1456.369995,1973.546631 1456.381470,2087.457031 
	C1456.382935,2102.071045 1456.394165,2102.081787 1471.395264,2102.082031 
	C1803.698608,2102.083984 2136.001953,2102.089600 2468.305420,2102.063721 
	C2483.475586,2102.062500 2482.287842,2103.703613 2482.289551,2088.108887 
	C2482.309814,1888.793579 2482.302979,1689.478149 2482.304199,1490.162842 
	C2482.304199,1487.163208 2482.355957,1484.162964 2482.320068,1481.163940 
	C2482.264893,1476.541138 2484.034424,1473.125122 2487.691406,1470.007568 
	C2510.545166,1450.525146 2531.541992,1429.365234 2546.548096,1402.959351 
	C2553.328613,1391.028198 2558.873291,1378.662354 2561.369629,1364.455444 
	C2562.000000,1612.558960 2562.000000,1861.117798 2562.000000,2110.000000 
	C2137.958252,2110.000000 1713.916504,2110.000000 1288.937256,2110.000000 
z"/>
<path fill="none" opacity="0" stroke="none" 
	d="
M2.000000,1676.937256 
	C5.129944,1677.616699 5.475568,1680.390015 5.601398,1683.581421 
	C7.112341,1721.902588 18.383318,1757.461670 36.707096,1790.877197 
	C48.271557,1811.966187 62.547234,1831.190796 79.438385,1848.313721 
	C84.053406,1852.991943 85.821274,1857.708984 85.806206,1864.157715 
	C85.633339,1938.141479 85.696266,2012.125732 85.696495,2086.109863 
	C85.696495,2088.109375 85.673866,2090.109375 85.702415,2092.108643 
	C85.843010,2101.952637 85.847801,2101.957031 95.800301,2102.079102 
	C97.799576,2102.103760 99.799393,2102.083740 101.798965,2102.083740 
	C430.395142,2102.083740 758.991333,2102.086426 1087.587524,2102.076904 
	C1104.818848,2102.076416 1103.789429,2103.539062 1103.789307,2085.840332 
	C1103.788696,1971.531494 1103.788940,1857.222656 1103.789062,1742.913818 
	C1103.789062,1739.367432 1103.789062,1735.821167 1103.789062,1732.020996 
	C1107.582153,1732.699463 1107.960327,1735.237427 1108.903076,1737.193604 
	C1122.469116,1765.345581 1136.047363,1793.491699 1149.524170,1821.686279 
	C1159.403076,1842.353638 1169.146484,1863.085571 1178.934570,1883.796021 
	C1192.570801,1912.648682 1206.130249,1941.537720 1219.839478,1970.355591 
	C1230.976440,1993.766724 1242.310303,2017.083984 1253.510986,2040.464966 
	C1263.138306,2060.562256 1272.678101,2080.701416 1282.320923,2100.791260 
	C1283.501221,2103.250244 1284.302246,2105.720459 1284.139160,2109.222900 
	C856.884644,2110.000000 429.769257,2110.000000 2.000000,2110.000000 
	C2.000000,1965.958862 2.000000,1821.916748 2.000000,1676.937256 
z"/>
<path fill="#7D5640" opacity="1.000000" stroke="none" 
	d="
M88.497437,4.657043 
	C87.928391,3.825749 87.943535,2.912065 87.971771,2.456032 
	C884.708496,2.000000 1681.416992,2.000000 2479.062744,2.000000 
	C2480.000000,2.000000 2480.055176,2.913432 2480.062988,3.370913 
	C2477.974854,7.586312 2474.334961,7.995778 2470.597412,8.201685 
	C2464.937012,8.513525 2459.271240,8.429522 2453.607178,8.429558 
	C1673.866699,8.434547 894.126282,8.442886 114.385880,8.321474 
	C105.936699,8.320159 97.030296,10.561923 88.497437,4.657043 
z"/>
<path fill="#EC1A24" opacity="1.000000" stroke="none" 
	d="
M1127.781860,1550.349121 
	C1129.292114,1560.117798 1130.520630,1569.032471 1132.210327,1577.858887 
	C1133.729858,1585.796265 1138.417847,1591.762207 1145.169312,1596.077515 
	C1153.241699,1601.236694 1162.243286,1603.674194 1171.690674,1603.996826 
	C1207.523926,1605.220337 1240.050415,1594.983887 1269.678955,1575.093872 
	C1279.545166,1568.470581 1286.761841,1559.323853 1293.431641,1549.682983 
	C1308.666626,1527.661865 1320.053589,1503.538696 1331.777954,1479.597534 
	C1333.357178,1476.372559 1335.090942,1473.223267 1336.717773,1470.106567 
	C1340.327026,1471.460693 1339.581177,1474.156494 1339.781006,1476.244629 
	C1342.669800,1506.431885 1345.509766,1536.623901 1348.278564,1566.822510 
	C1350.354492,1589.463379 1357.854980,1598.497192 1380.167480,1602.178955 
	C1412.391357,1607.495850 1442.515137,1600.750488 1470.053833,1583.431519 
	C1482.707153,1575.473877 1489.991699,1564.131470 1492.267334,1548.526001 
	C1498.035278,1508.973999 1505.163086,1469.620239 1511.758667,1430.189209 
	C1512.016846,1428.646240 1511.829346,1426.941406 1513.234497,1425.662354 
	C1516.099609,1428.234253 1515.442627,1431.794922 1515.740601,1434.977417 
	C1520.677246,1487.722046 1525.867554,1540.446167 1530.281128,1593.235107 
	C1532.401855,1618.599976 1549.167847,1629.120850 1569.174683,1631.447510 
	C1607.003418,1635.846802 1659.139038,1609.216064 1667.019165,1559.651001 
	C1669.255981,1545.580444 1668.901978,1531.085449 1669.535767,1516.776245 
	C1670.007690,1506.122314 1670.143066,1495.453613 1670.463989,1484.792603 
	C1670.513184,1483.153564 1670.507446,1481.437622 1672.050415,1480.169312 
	C1675.385132,1480.366699 1675.756226,1483.507324 1676.989868,1485.577148 
	C1689.510010,1506.583740 1703.818237,1526.134277 1722.184082,1542.509766 
	C1749.470459,1566.839111 1781.459229,1580.299561 1817.670532,1584.018188 
	C1862.234619,1588.594604 1905.312012,1581.447266 1947.403442,1567.123291 
	C1960.958496,1562.510498 1974.329956,1557.356201 1987.767822,1552.401489 
	C2031.255981,1536.366333 2066.656982,1508.433960 2099.344482,1476.512207 
	C2112.462891,1463.700806 2125.122070,1450.514404 2136.676758,1436.203979 
	C2145.868408,1424.819824 2148.095703,1412.205200 2145.376465,1398.610474 
	C2140.435059,1373.906616 2127.935791,1353.446167 2108.744385,1337.119263 
	C2104.917236,1333.863281 2100.643555,1331.265869 2095.908447,1329.497559 
	C2088.220215,1326.626343 2081.251953,1327.041870 2074.331543,1332.326294 
	C2052.338135,1349.121216 2029.725098,1365.058472 2005.825928,1379.069824 
	C1987.677124,1389.709839 1968.955811,1399.140747 1948.659424,1405.089966 
	C1933.715210,1409.470215 1918.589966,1410.613770 1903.176636,1408.013428 
	C1883.532593,1404.699219 1874.382690,1394.977173 1873.633545,1375.122192 
	C1872.570679,1346.956543 1879.804199,1321.011475 1895.964966,1297.759033 
	C1920.906250,1261.872681 1953.991211,1235.671997 1992.810791,1216.210815 
	C1997.781128,1213.718994 2000.452026,1215.087402 2003.665771,1219.007568 
	C2014.458618,1232.172729 2026.149170,1244.507812 2039.667969,1254.961792 
	C2047.871338,1261.305420 2056.581299,1266.824951 2066.347656,1270.506348 
	C2086.146484,1277.969482 2104.881836,1276.458008 2122.325439,1263.900513 
	C2123.913330,1262.757446 2125.196777,1261.063965 2127.373047,1260.900146 
	C2128.747070,1262.028076 2129.228516,1263.625488 2129.597900,1265.253174 
	C2136.185791,1294.269775 2155.173828,1311.865601 2182.046387,1322.181396 
	C2203.165039,1330.288574 2225.282715,1332.957153 2247.666016,1333.894165 
	C2278.383057,1335.180054 2308.941895,1332.669434 2339.458984,1329.549683 
	C2343.800781,1329.105835 2348.097168,1328.827271 2352.372803,1329.897705 
	C2362.935303,1332.542480 2365.731445,1339.880249 2359.015625,1348.438721 
	C2351.653320,1357.821777 2341.828857,1364.063232 2330.969971,1368.754028 
	C2293.524170,1384.929688 2254.605469,1396.489990 2214.957764,1405.756592 
	C2206.200439,1407.803345 2197.418701,1409.749023 2188.636230,1411.685303 
	C2163.711914,1417.180664 2148.934570,1432.848022 2144.554199,1457.602661 
	C2139.724365,1484.897461 2141.590088,1512.344238 2148.811768,1538.866943 
	C2157.038086,1569.079102 2179.188477,1584.887573 2209.352295,1589.730225 
	C2228.063721,1592.734253 2246.644043,1590.897461 2264.611084,1584.866577 
	C2312.372803,1568.834839 2358.996094,1550.079712 2403.383545,1526.053101 
	C2424.220947,1514.774048 2444.295166,1502.291138 2463.595459,1488.550903 
	C2465.176758,1487.425049 2466.520020,1485.798828 2469.441895,1485.581787 
	C2471.376953,1488.253418 2470.460205,1491.644531 2470.463623,1494.725098 
	C2470.523926,1547.389771 2470.508301,1600.054321 2470.508057,1652.718994 
	C2470.507568,1794.046875 2470.523682,1935.374756 2470.481934,2076.702637 
	C2470.477295,2091.834229 2472.138184,2090.297119 2457.358887,2090.298584 
	C2132.038086,2090.330078 1806.717407,2090.327393 1481.396606,2090.304688 
	C1468.288696,2090.303711 1469.064575,2091.744873 1469.062500,2077.834717 
	C1469.044556,1955.506104 1469.053223,1833.177490 1469.052979,1710.848877 
	C1469.052979,1708.182373 1468.894653,1705.506104 1469.068359,1702.851440 
	C1469.358643,1698.414062 1467.572144,1696.317383 1463.030884,1695.479858 
	C1458.560059,1694.655273 1457.206787,1696.904785 1455.738159,1700.251953 
	C1446.635742,1720.999268 1437.391846,1741.684570 1428.222168,1762.402588 
	C1382.916260,1864.766479 1337.625244,1967.137085 1292.291016,2069.488281 
	C1290.718750,2073.037842 1289.678101,2076.924805 1286.580933,2080.214600 
	C1283.289917,2077.253174 1282.167847,2073.329346 1280.502441,2069.828613 
	C1222.532349,1947.973145 1164.611938,1826.094116 1106.685059,1704.218140 
	C1105.826782,1702.412476 1104.873413,1700.643188 1104.149902,1698.784668 
	C1102.775879,1695.255737 1100.363770,1694.826660 1096.929810,1695.574707 
	C1093.539917,1696.313232 1091.457520,1697.595093 1091.625610,1701.409546 
	C1091.757690,1704.402710 1091.608276,1707.407593 1091.608276,1710.407349 
	C1091.605347,1832.402466 1091.605225,1954.397461 1091.604736,2076.392578 
	C1091.604736,2077.392578 1091.607544,2078.392578 1091.603516,2079.392578 
	C1091.558716,2090.266846 1091.558472,2090.314697 1080.755127,2090.314941 
	C756.767639,2090.323486 432.780151,2090.321777 108.792664,2090.319580 
	C106.792969,2090.319580 104.789276,2090.198242 102.794418,2090.288330 
	C98.932014,2090.462158 97.379974,2088.547852 97.538589,2084.851807 
	C97.609962,2083.188965 97.513947,2081.519531 97.513901,2079.853027 
	C97.511902,2011.855713 97.512207,1943.858276 97.512207,1875.860962 
	C97.512207,1872.918335 97.512207,1869.975830 97.512207,1867.494507 
	C100.616936,1865.760864 102.116501,1867.552734 103.638237,1868.616821 
	C150.855423,1901.628662 203.927719,1913.724854 260.688049,1912.619629 
	C315.260132,1911.556885 367.587860,1898.839966 418.960480,1881.580566 
	C455.309692,1869.368530 490.619202,1854.503662 525.375488,1838.318848 
	C529.929626,1836.198120 534.313232,1833.885498 538.162903,1830.607056 
	C544.862366,1824.901489 546.028748,1817.065552 546.293152,1808.924194 
	C550.653381,1808.592773 553.442139,1811.339478 556.581848,1812.998901 
	C591.230408,1831.311646 627.273743,1845.780273 665.991211,1852.899780 
	C697.454895,1858.685303 728.988464,1859.658325 760.239258,1852.046997 
	C784.062439,1846.244751 805.768982,1835.137329 826.612305,1822.464478 
	C870.114502,1796.015015 902.463379,1758.902954 927.882385,1715.348877 
	C934.903625,1703.318359 941.305359,1690.926147 947.959656,1678.757935 
	C951.605286,1678.909302 953.526611,1681.463135 955.855225,1683.137207 
	C995.341675,1711.525024 1040.336182,1702.032959 1065.314575,1659.996094 
	C1071.493042,1649.598022 1075.734863,1638.417603 1078.784058,1626.758423 
	C1091.007812,1580.017090 1104.437012,1533.612671 1117.788086,1487.186646 
	C1118.786255,1483.715820 1119.226685,1480.018921 1122.003174,1476.147827 
	C1124.842773,1482.563477 1123.385010,1488.737427 1123.763428,1494.648682 
	C1124.146484,1500.632202 1124.031128,1506.646484 1124.362427,1512.634766 
	C1124.712158,1518.953979 1125.274292,1525.263306 1125.850098,1531.567383 
	C1126.395386,1537.536987 1127.078491,1543.494019 1127.781860,1550.349121 
z"/>
<path fill="#FCF000" opacity="1.000000" stroke="none" 
	d="
M1979.231689,1411.230835 
	C2006.067871,1399.626221 2029.805176,1384.209839 2053.123047,1368.105225 
	C2062.716553,1361.479492 2072.334717,1354.833740 2081.410400,1347.536255 
	C2086.320312,1343.588257 2090.268799,1344.004028 2094.780518,1347.313965 
	C2096.391602,1348.495850 2098.116699,1349.554199 2099.586426,1350.892456 
	C2114.540771,1364.510864 2124.639648,1380.974121 2128.941162,1400.882690 
	C2130.967529,1410.259888 2129.329102,1418.450439 2123.196777,1426.144165 
	C2105.658447,1448.148682 2084.987793,1466.981201 2064.278076,1485.841431 
	C2036.999878,1510.682739 2005.461182,1528.029175 1971.076294,1540.857788 
	C1938.857178,1552.878174 1906.355225,1563.574585 1871.897095,1566.915649 
	C1845.885010,1569.437744 1820.014893,1569.324463 1794.466553,1562.735352 
	C1759.060669,1553.604126 1731.704102,1532.855835 1709.741333,1504.304565 
	C1696.888184,1487.595459 1686.486206,1469.409058 1677.701294,1450.273804 
	C1675.756104,1446.036621 1673.886963,1441.755127 1671.723267,1437.630127 
	C1669.913818,1434.180176 1667.047607,1431.654663 1662.902954,1432.413208 
	C1658.507568,1433.217773 1656.021118,1436.202393 1655.783447,1440.810181 
	C1655.714722,1442.141235 1655.675781,1443.473877 1655.623535,1444.805786 
	C1654.355469,1477.108398 1652.914062,1509.405396 1651.865479,1541.715088 
	C1650.712036,1577.258545 1630.965088,1602.587646 1596.513306,1612.159302 
	C1587.080566,1614.779907 1577.574219,1615.847168 1567.858154,1614.086792 
	C1554.427979,1611.653198 1548.762085,1605.950562 1547.407349,1592.401245 
	C1544.159180,1559.915527 1541.148315,1527.406128 1538.066528,1494.903931 
	C1534.323975,1455.434937 1530.611816,1415.963013 1526.874268,1376.493408 
	C1526.120361,1368.532471 1525.326782,1360.575317 1524.522949,1352.619263 
	C1524.043091,1347.870239 1522.171143,1344.221924 1516.827026,1343.736328 
	C1512.094727,1343.306519 1508.934326,1345.981812 1507.810425,1352.387085 
	C1503.780762,1375.353027 1499.980713,1398.359375 1496.159790,1421.361450 
	C1489.171753,1463.429199 1481.985107,1505.466431 1475.441040,1547.603394 
	C1473.773804,1558.338013 1467.721802,1564.935059 1459.374878,1570.322632 
	C1445.384155,1579.352783 1429.768311,1583.832153 1413.437378,1585.983765 
	C1404.174683,1587.204224 1394.835815,1587.817871 1385.552368,1586.079956 
	C1381.969238,1585.409058 1378.357178,1584.604980 1374.951294,1583.341309 
	C1369.243530,1581.223511 1366.023926,1577.527710 1365.443726,1570.786133 
	C1362.586548,1537.587158 1359.235718,1504.430908 1356.052612,1471.260010 
	C1354.938599,1459.649780 1353.831543,1448.038818 1352.660156,1436.434326 
	C1352.427124,1434.126587 1352.289795,1431.700684 1351.462036,1429.581787 
	C1349.062988,1423.441528 1342.068604,1422.146973 1337.835938,1427.172363 
	C1335.960327,1429.399292 1334.874512,1432.342773 1333.652344,1435.060913 
	C1320.129639,1465.134644 1306.629761,1495.217773 1290.005981,1523.765015 
	C1289.670898,1524.340332 1289.292725,1524.892456 1288.984741,1525.481445 
	C1265.700806,1569.994629 1225.314575,1584.206909 1178.852295,1587.444336 
	C1172.196289,1587.908081 1165.574219,1586.666382 1159.247070,1584.309448 
	C1152.860596,1581.930420 1149.112427,1577.918213 1147.749390,1570.707520 
	C1142.715210,1544.077515 1140.986450,1517.181152 1140.243286,1490.187988 
	C1139.536987,1464.534912 1139.175781,1438.872681 1138.560913,1413.216919 
	C1138.346802,1404.282471 1136.019287,1400.614380 1130.844849,1400.230469 
	C1126.159424,1399.882812 1123.075195,1402.909546 1121.052734,1410.887939 
	C1103.455322,1480.309692 1081.789917,1548.607422 1063.900757,1617.947388 
	C1060.303833,1631.889160 1055.598755,1645.331055 1047.026978,1657.165649 
	C1026.755859,1685.152710 995.665466,1690.451904 967.380005,1670.663208 
	C962.446411,1667.211914 958.064575,1663.137085 953.585999,1659.140747 
	C945.995056,1652.367065 940.840149,1653.280640 936.499146,1662.571533 
	C926.897522,1683.121582 916.418152,1703.168457 904.017334,1722.180176 
	C879.218506,1760.199097 847.750793,1790.958984 808.273865,1813.980347 
	C762.611511,1840.608887 714.379089,1845.812988 663.570190,1835.269653 
	C623.704407,1826.997070 586.856567,1811.048584 551.685852,1790.906372 
	C547.927917,1788.754395 544.279297,1786.404907 540.468689,1784.354004 
	C537.177734,1782.582764 533.749573,1781.259766 530.159302,1783.880737 
	C526.399048,1786.625610 525.956848,1790.395630 526.623535,1794.586792 
	C527.251160,1798.531982 527.854980,1802.481812 528.403076,1806.438721 
	C529.783264,1816.402588 529.295410,1817.741577 520.307739,1822.004883 
	C498.046967,1832.564453 475.425720,1842.318726 452.482391,1851.300049 
	C411.477264,1867.352051 369.682983,1880.814087 326.273193,1888.738770 
	C286.699463,1895.963257 246.999527,1898.797363 206.975082,1892.186157 
	C168.058487,1885.758057 132.629517,1871.341431 102.092850,1846.190552 
	C86.030602,1832.961060 73.710449,1816.183105 62.374554,1798.876221 
	C26.186312,1743.626831 15.067921,1683.133179 25.228577,1618.266113 
	C32.914425,1569.198608 51.560772,1524.226807 75.669830,1481.203369 
	C93.192162,1449.934204 115.058182,1421.851685 138.049118,1394.528564 
	C170.691406,1355.735840 204.228271,1317.812500 242.160095,1283.999512 
	C282.441528,1248.092041 326.518646,1217.751953 375.064301,1194.182617 
	C398.789337,1182.663818 423.593353,1173.852295 450.047272,1170.839966 
	C471.215027,1168.429443 488.659729,1173.958740 500.516357,1193.377808 
	C508.890808,1207.093872 516.378357,1221.111450 521.612915,1236.278320 
	C532.508423,1267.847412 536.320984,1300.506958 535.532776,1333.708862 
	C534.810791,1364.119751 529.917236,1393.913696 522.470276,1423.474243 
	C513.878113,1457.580444 484.453583,1467.008423 460.146637,1462.921143 
	C433.581482,1458.454102 412.880096,1444.008667 395.344696,1424.352539 
	C390.462524,1418.879883 386.136353,1412.965942 382.047241,1406.859619 
	C374.615936,1395.762207 371.893311,1395.297974 361.435455,1403.080933 
	C342.386292,1417.257935 325.229218,1433.537598 309.033722,1450.836060 
	C282.296570,1479.393799 258.214447,1509.955566 239.439651,1544.438599 
	C228.868622,1563.854126 220.219299,1584.026733 217.253479,1606.136108 
	C214.389786,1627.484253 217.725815,1648.110962 227.071198,1667.428589 
	C240.699722,1695.599854 265.021271,1708.294434 294.852875,1712.027588 
	C325.498444,1715.862549 355.250610,1710.348877 384.668793,1702.474243 
	C423.755035,1692.011353 460.696503,1676.063599 497.041321,1658.509277 
	C504.100708,1655.099487 506.455933,1649.886108 507.719299,1643.023682 
	C511.938263,1620.106934 516.217957,1597.200073 520.690613,1574.331665 
	C528.232117,1535.772217 541.847229,1499.449219 561.083557,1465.188354 
	C580.742065,1430.175293 604.139648,1397.774170 630.533752,1367.642212 
	C650.252563,1345.130981 674.919678,1328.422852 700.301453,1312.939087 
	C733.978882,1292.394653 769.274231,1275.331421 807.452026,1264.729980 
	C819.376831,1261.418579 831.555359,1259.526001 843.872375,1258.809082 
	C855.082581,1258.156616 865.599731,1260.883301 875.566528,1266.207153 
	C902.299255,1280.486572 923.103210,1301.383179 941.518311,1324.934814 
	C951.181030,1337.292725 959.661743,1350.446289 966.813293,1364.442749 
	C969.215698,1369.144531 971.308350,1374.763672 978.116516,1373.923096 
	C984.242493,1373.166748 985.299133,1367.759766 986.854553,1362.995361 
	C1005.454834,1306.018311 1025.144043,1249.422607 1046.251953,1193.322998 
	C1052.595581,1176.463257 1060.202148,1160.185791 1068.645752,1144.288818 
	C1069.426147,1142.819458 1070.377930,1141.441528 1071.167236,1139.976440 
	C1083.460327,1117.160034 1102.481689,1106.239624 1128.435181,1107.497803 
	C1142.421265,1108.175903 1156.345093,1109.307129 1170.147339,1111.847290 
	C1181.537476,1113.943481 1189.442261,1120.197754 1194.398193,1130.570801 
	C1199.181274,1140.581909 1201.934326,1151.187378 1204.015015,1162.000244 
	C1212.966309,1208.517334 1219.031372,1255.412598 1222.376221,1302.663330 
	C1222.587891,1305.653564 1222.981567,1308.632202 1223.334229,1311.610962 
	C1223.838867,1315.876099 1225.379028,1319.479736 1230.122559,1320.324219 
	C1235.239868,1321.234985 1238.247437,1318.419067 1240.234985,1314.064819 
	C1241.341309,1311.641357 1242.544312,1309.262207 1243.690674,1306.856934 
	C1263.318237,1265.675049 1281.995361,1224.036743 1302.649780,1183.349487 
	C1309.893921,1169.078979 1318.289185,1155.471313 1328.284790,1142.889038 
	C1354.859863,1109.437134 1389.730103,1096.462646 1431.638550,1100.942993 
	C1437.911011,1101.613770 1444.186646,1102.676147 1450.321899,1104.139282 
	C1484.038940,1112.179932 1502.730713,1135.083984 1504.005737,1169.621216 
	C1504.104126,1172.285034 1503.960938,1174.979004 1504.314575,1177.607178 
	C1504.913696,1182.062012 1507.499634,1185.105835 1512.068848,1185.414673 
	C1516.168579,1185.691650 1518.960693,1183.263184 1520.236206,1179.390625 
	C1520.962280,1177.185913 1521.450562,1174.885620 1521.854858,1172.594727 
	C1526.078735,1148.657471 1530.608154,1124.766357 1534.307129,1100.747803 
	C1536.026855,1089.581055 1541.551392,1081.763916 1550.683716,1075.788818 
	C1559.920410,1069.745483 1569.813599,1064.928101 1579.810791,1060.417969 
	C1608.063477,1047.672363 1636.701660,1035.963623 1667.578613,1030.970093 
	C1675.201050,1029.737305 1682.871216,1029.379761 1690.491577,1030.333008 
	C1703.451416,1031.954224 1709.131470,1038.112671 1707.900146,1051.108887 
	C1706.331177,1067.668823 1703.567505,1084.121094 1701.129028,1100.591797 
	C1694.882080,1142.787720 1689.764038,1185.118164 1685.834106,1227.590454 
	C1683.316895,1254.794312 1680.920288,1282.009521 1678.537231,1309.225586 
	C1678.130615,1313.868286 1677.985107,1318.538818 1677.865234,1323.200317 
	C1677.756958,1327.408691 1680.021973,1330.178711 1683.882324,1331.381226 
	C1687.487061,1332.504272 1690.562378,1330.936279 1692.623413,1328.065186 
	C1695.336548,1324.285767 1697.638306,1320.211060 1700.114136,1316.261597 
	C1745.979492,1243.094482 1801.484009,1178.260010 1868.654541,1123.870972 
	C1918.418335,1083.576538 1974.698608,1055.265015 2036.111572,1037.230347 
	C2049.262207,1033.368408 2062.760498,1031.568604 2076.542480,1031.607788 
	C2085.364746,1031.632812 2092.746094,1034.621582 2099.375977,1040.153076 
	C2109.561035,1048.651245 2116.646729,1059.478027 2122.647461,1071.090820 
	C2139.354248,1103.422119 2148.271729,1138.143677 2153.996826,1173.833862 
	C2154.577148,1177.450806 2155.118896,1181.078857 2155.862061,1184.663452 
	C2156.605713,1188.250977 2158.879639,1190.674927 2162.473877,1191.349487 
	C2166.622314,1192.128174 2169.452637,1189.855957 2171.538086,1186.532471 
	C2172.242188,1185.410400 2172.748779,1184.160645 2173.308838,1182.952271 
	C2195.460449,1135.138916 2231.053467,1099.522217 2274.803711,1071.391479 
	C2318.935059,1043.015747 2367.369385,1024.630859 2417.556396,1010.386902 
	C2422.360352,1009.023499 2427.383057,1008.177063 2431.929688,1006.220520 
	C2438.634766,1003.334961 2443.179443,1005.617126 2447.715820,1010.529236 
	C2462.998047,1027.076904 2474.848877,1045.926758 2485.183594,1065.783081 
	C2488.556396,1072.263428 2491.453369,1079.030396 2494.062744,1085.859497 
	C2497.422607,1094.651855 2495.784912,1099.373169 2488.087891,1104.666138 
	C2478.462158,1111.285278 2468.167236,1116.753418 2457.772949,1122.050293 
	C2434.631348,1133.842773 2410.822998,1144.326538 2388.384766,1157.501709 
	C2380.031494,1162.406616 2372.039551,1167.828735 2364.617920,1174.033569 
	C2358.173096,1179.421631 2352.669922,1185.625854 2349.524170,1193.619385 
	C2344.050293,1207.528809 2349.286377,1220.617188 2362.844238,1226.869629 
	C2370.020020,1230.178589 2377.605957,1230.807739 2385.333496,1230.234497 
	C2398.293213,1229.273560 2411.233887,1228.036743 2424.199951,1227.180786 
	C2439.550537,1226.167480 2454.849854,1226.701904 2469.962646,1229.884033 
	C2482.591797,1232.543091 2494.298584,1237.536011 2503.581055,1246.545410 
	C2527.876465,1270.125977 2542.366699,1298.930542 2545.903320,1332.604614 
	C2548.962402,1361.728882 2537.574707,1386.833984 2521.004639,1409.792480 
	C2497.835693,1441.893555 2467.636475,1466.437988 2434.766602,1487.844238 
	C2379.657227,1523.733398 2319.476318,1548.781250 2257.363525,1569.423340 
	C2241.415283,1574.723633 2224.747559,1575.815796 2208.006348,1572.300659 
	C2182.976562,1567.045288 2167.015869,1551.576294 2162.749268,1526.426636 
	C2159.404297,1506.707520 2157.812988,1486.738647 2159.910156,1466.682495 
	C2162.306396,1443.767456 2171.854492,1432.346680 2194.306641,1427.317139 
	C2230.389893,1419.234375 2266.290039,1410.546265 2301.124023,1397.998901 
	C2313.958984,1393.375854 2326.630615,1388.275635 2339.249756,1383.084595 
	C2349.520264,1378.859619 2358.456787,1372.449829 2366.540771,1364.875366 
	C2370.954834,1360.739258 2374.647217,1356.009644 2377.092529,1350.440430 
	C2382.585938,1337.930542 2378.921143,1325.648682 2367.457275,1318.155396 
	C2358.976074,1312.612183 2349.523682,1311.118042 2339.676025,1312.326416 
	C2321.138916,1314.601074 2302.533691,1315.904541 2283.893799,1316.866455 
	C2257.843994,1318.210571 2231.931641,1317.358643 2206.336426,1311.865601 
	C2196.547607,1309.764893 2187.157715,1306.483643 2178.166504,1301.960693 
	C2156.867676,1291.246094 2146.107178,1273.690430 2144.135254,1250.324219 
	C2143.827393,1246.677490 2143.968018,1242.994873 2143.795410,1239.333984 
	C2143.609863,1235.394165 2142.074463,1232.095825 2138.241699,1230.594604 
	C2134.312500,1229.055664 2131.072754,1230.745239 2128.425293,1233.654053 
	C2126.632568,1235.624023 2125.031250,1237.767212 2123.295410,1239.790894 
	C2105.944336,1260.020386 2087.219727,1263.432739 2063.675537,1250.630371 
	C2046.068604,1241.056396 2032.659302,1226.671021 2019.561646,1211.953491 
	C2016.239746,1208.220825 2013.237305,1204.203369 2009.909302,1200.476562 
	C2004.730957,1194.677979 2002.072388,1193.972900 1994.988770,1196.895508 
	C1985.746704,1200.708374 1976.799072,1205.176147 1968.196167,1210.272827 
	C1930.352051,1232.692261 1897.877686,1260.780396 1875.417480,1299.210449 
	C1860.861938,1324.115112 1854.843628,1351.223755 1857.379517,1379.822632 
	C1859.639648,1405.311890 1874.538452,1419.798096 1899.897339,1424.207275 
	C1924.386719,1428.465332 1947.588989,1424.053223 1970.282959,1415.114746 
	C1973.071533,1414.016357 1975.799438,1412.763672 1979.231689,1411.230835 
z"/>
<path fill="#EC1A24" opacity="1.000000" stroke="none" 
	d="
M99.461700,984.748169 
	C103.663879,984.299316 107.322762,984.085876 110.981636,984.085815 
	C882.348999,984.071228 1653.716431,984.071594 2425.083740,984.074707 
	C2428.082275,984.074707 2431.080566,984.120544 2435.004395,984.269409 
	C2436.656250,985.027405 2436.967285,985.823425 2436.429932,987.312012 
	C2412.189941,995.389832 2387.910889,1001.372925 2364.432129,1010.020996 
	C2323.933838,1024.937866 2285.096191,1043.035278 2249.925049,1068.367188 
	C2219.324463,1090.407349 2193.112305,1116.649292 2172.995117,1148.728027 
	C2172.113281,1150.133789 2171.129639,1151.477417 2170.150879,1152.818970 
	C2169.979492,1153.053955 2169.596436,1153.134155 2168.676758,1153.623169 
	C2166.246094,1151.787842 2166.428955,1148.718262 2165.821289,1146.041504 
	C2159.463135,1118.027222 2151.415527,1090.586548 2138.147217,1064.934448 
	C2132.464355,1053.947388 2125.832031,1043.618530 2117.422363,1034.447632 
	C2104.404541,1020.251221 2088.611572,1013.888611 2069.207275,1015.149292 
	C2043.930176,1016.791687 2020.083130,1023.834717 1996.653076,1032.698853 
	C1917.249023,1062.739258 1849.820557,1110.345337 1791.840942,1172.000854 
	C1760.272583,1205.570801 1730.860596,1240.825439 1704.700195,1278.774902 
	C1703.091675,1281.108398 1701.864624,1283.890747 1698.144897,1285.823242 
	C1697.345947,1279.428589 1698.110962,1273.923950 1698.596191,1268.464355 
	C1704.704224,1199.750610 1712.666382,1131.262207 1723.593872,1063.133301 
	C1724.542114,1057.220459 1725.261719,1051.242676 1724.717041,1045.212280 
	C1723.382202,1030.431641 1715.539795,1020.447998 1701.334717,1016.019470 
	C1688.926147,1012.151062 1676.244141,1013.013000 1663.691772,1015.035034 
	C1631.813110,1020.170288 1602.206055,1032.256958 1573.011841,1045.439819 
	C1562.998291,1049.961670 1553.150146,1054.867920 1543.754272,1060.622803 
	C1528.995483,1069.662354 1519.549316,1081.978760 1517.763428,1099.825073 
	C1516.783081,1109.621338 1514.407349,1119.278076 1512.504761,1129.865601 
	C1510.789062,1128.268799 1509.890381,1127.740112 1509.425049,1126.954834 
	C1495.912354,1104.147339 1475.102295,1092.206543 1449.799561,1087.204834 
	C1426.657715,1082.630249 1403.472534,1081.969604 1380.495239,1088.252930 
	C1352.728760,1095.845947 1331.061279,1112.335938 1313.640259,1134.835449 
	C1298.862915,1153.920532 1287.676514,1175.125610 1277.337036,1196.804810 
	C1265.864014,1220.860596 1254.563965,1244.998657 1243.153687,1269.084229 
	C1241.900879,1271.728638 1240.417480,1274.263672 1238.751343,1277.393555 
	C1235.667847,1273.724121 1236.323486,1269.943604 1235.981934,1266.489868 
	C1232.076538,1227.003906 1226.411865,1187.784668 1218.116211,1148.971680 
	C1216.091675,1139.499268 1212.947266,1130.365845 1208.485962,1121.716553 
	C1201.302979,1107.790771 1190.114868,1098.936401 1174.734009,1096.055054 
	C1155.386230,1092.430542 1135.888184,1090.267944 1116.115356,1091.653687 
	C1095.660889,1093.087158 1079.132202,1101.668945 1066.406006,1117.778809 
	C1056.393799,1130.453003 1049.321533,1144.803467 1042.653931,1159.334229 
	C1029.163086,1188.735107 1018.820251,1219.374878 1007.975708,1249.797241 
	C998.134155,1277.405518 988.908936,1305.233276 979.313232,1332.930176 
	C978.142883,1336.308105 977.813660,1340.107544 975.017090,1342.942505 
	C971.308289,1340.758179 970.065857,1336.741333 967.895935,1333.488892 
	C949.429321,1305.809692 927.826172,1281.066284 900.292725,1262.029785 
	C885.952759,1252.115356 870.883484,1243.563477 852.820496,1242.553711 
	C837.692749,1241.708008 822.903625,1244.055786 808.305603,1247.677246 
	C769.466919,1257.312622 733.659546,1274.153320 699.354675,1294.333252 
	C670.845886,1311.103516 642.827026,1329.014648 620.860413,1354.012329 
	C568.403137,1413.707520 525.235474,1478.930420 507.386292,1557.930298 
	C501.591461,1583.578003 497.158356,1609.534912 492.206879,1635.370239 
	C491.366394,1639.755615 490.438446,1643.404663 485.696686,1645.690063 
	C442.953186,1666.292358 399.278564,1684.250610 352.362793,1692.992676 
	C332.299469,1696.731079 312.001862,1698.631104 291.744873,1694.932129 
	C257.188690,1688.622192 238.374741,1667.633911 233.906952,1632.841919 
	C230.932159,1609.676514 236.933487,1588.552002 246.373962,1568.024292 
	C261.974701,1534.101929 284.011200,1504.467285 308.426849,1476.506592 
	C325.108948,1457.402344 342.916595,1439.409790 362.684967,1423.448486 
	C369.010925,1418.340942 369.069855,1418.396973 373.926819,1424.719482 
	C392.185944,1448.487671 414.070648,1467.503418 443.362946,1476.262939 
	C465.915558,1483.006958 488.087585,1482.798828 508.962341,1470.243652 
	C522.063171,1462.364136 531.391968,1451.060181 535.720947,1436.545654 
	C554.361694,1374.045532 558.535461,1310.909790 542.241577,1247.187622 
	C536.165771,1223.426270 525.980286,1201.507690 512.137817,1181.156616 
	C500.087646,1163.440796 483.557556,1154.864746 462.503967,1154.085327 
	C446.303619,1153.485718 430.727448,1156.891235 415.288269,1161.270020 
	C382.953796,1170.441040 353.409607,1185.679199 324.703857,1202.778442 
	C266.918610,1237.199463 217.052368,1281.084717 171.858276,1330.555176 
	C148.247925,1356.399536 125.806030,1383.244507 103.716942,1410.389526 
	C102.467110,1411.925537 101.064964,1413.337524 99.327003,1415.256226 
	C96.457596,1411.848145 97.570229,1408.109497 97.566422,1404.770996 
	C97.490669,1338.448730 97.493851,1272.126465 97.515388,1205.804077 
	C97.538979,1133.149170 97.597397,1060.494141 97.834366,986.918579 
	C98.324860,985.692993 98.621628,985.388062 99.461700,984.748169 
z"/>
<path fill="#E91A23" opacity="1.000000" stroke="none" 
	d="
M2410.540527,1164.382690 
	C2430.219971,1154.573975 2449.231689,1145.094238 2467.506348,1135.981812 
	C2470.725830,1137.195801 2470.444824,1139.075439 2470.449219,1140.606445 
	C2470.508545,1162.268066 2470.576660,1183.930176 2470.460449,1205.591309 
	C2470.424316,1212.343506 2470.120361,1212.769165 2463.749512,1211.941040 
	C2439.392578,1208.774658 2415.190430,1210.893555 2390.975586,1213.486206 
	C2385.672363,1214.054077 2380.317627,1214.521729 2375.026611,1213.551147 
	C2363.974121,1211.523438 2361.151611,1204.892456 2367.359619,1195.640869 
	C2370.747070,1190.592773 2375.337402,1186.717651 2380.168945,1183.121948 
	C2389.547119,1176.142456 2399.531494,1170.138428 2410.540527,1164.382690 
z"/>
<path fill="#CF1A24" opacity="1.000000" stroke="none" 
	d="
M2436.790283,987.938721 
	C2435.974121,987.076294 2435.952637,986.309998 2435.930664,984.968750 
	C2445.515137,984.244690 2455.102051,984.169922 2464.684326,983.911926 
	C2468.838867,983.800171 2470.755859,985.466248 2470.668457,989.706177 
	C2470.540771,995.903015 2470.635742,1002.104431 2470.635742,1009.256470 
	C2465.427002,1007.447571 2463.816650,1003.549133 2461.132568,1000.934509 
	C2454.466309,994.440857 2448.071533,987.526367 2436.790283,987.938721 
z"/>
<path fill="#CF1A24" opacity="1.000000" stroke="none" 
	d="
M99.479126,984.360596 
	C99.685913,984.898621 99.283417,985.300537 98.412811,985.808472 
	C98.336494,985.434692 98.644875,984.871399 99.479126,984.360596 
z"/>
<path fill="#EA2429" opacity="1.000000" stroke="none" 
	d="
M87.438721,4.510769 
	C91.592712,3.881409 95.257034,3.985808 98.921356,3.985843 
	C889.011963,3.993422 1679.102539,3.993725 2469.193115,3.991787 
	C2472.192139,3.991780 2475.190918,3.956251 2479.130371,3.882853 
	C2482.879395,7.739017 2481.646484,12.224135 2481.649170,16.440828 
	C2481.720459,131.097382 2481.706299,245.754013 2481.706299,360.410614 
	C2481.706299,552.727051 2481.707275,745.043518 2481.705078,937.359985 
	C2481.704834,952.111816 2482.865723,951.647400 2467.735840,951.647156 
	C1678.471680,951.636902 889.207642,951.638367 99.943504,951.635986 
	C86.309647,951.635925 86.295723,951.620972 86.295609,938.041138 
	C86.292946,630.734741 86.291771,323.428406 86.314728,16.122028 
	C86.315002,12.477049 85.844666,8.784719 87.438721,4.510769 
z"/>
<path fill="#0B0601" opacity="1.000000" stroke="none" 
	d="
M769.030884,1645.052490 
	C758.210449,1653.800903 746.670410,1659.531494 733.722412,1662.135254 
	C705.681458,1667.773926 681.810608,1655.537109 670.153625,1629.438354 
	C661.579529,1610.241943 660.438782,1590.334839 664.739685,1569.843140 
	C672.257935,1534.021729 688.151062,1502.113281 709.401550,1472.644287 
	C718.378357,1460.195801 728.312744,1448.555176 739.572510,1438.106201 
	C749.968201,1428.458984 761.789185,1421.251831 775.662720,1417.689697 
	C795.778931,1412.524536 813.644043,1418.570557 825.965454,1435.237915 
	C836.831238,1449.936279 842.183167,1466.848877 841.231201,1484.879517 
	C839.285522,1521.732178 831.909851,1557.455200 814.657471,1590.544922 
	C803.568726,1611.812866 788.334351,1629.685669 769.030884,1645.052490 
z"/>
<path fill="#FFFEFE" opacity="1.000000" stroke="none" 
	d="
M466.053650,266.040649 
	C475.515594,207.296463 484.765015,149.400589 494.278320,91.548111 
	C496.875763,75.752502 494.811829,78.669373 509.462952,78.631210 
	C561.793030,78.494896 614.123718,78.576317 666.454163,78.575455 
	C668.120728,78.575424 669.788086,78.543045 671.453735,78.582787 
	C679.299377,78.769981 679.315186,78.776680 679.506714,86.195038 
	C679.566895,88.526688 679.515930,90.861206 679.515991,93.194412 
	C679.518005,316.848755 679.516602,540.503113 679.541931,764.157471 
	C679.542603,769.708740 679.136536,775.307739 681.286011,780.871216 
	C684.124451,762.515320 686.991760,744.163757 689.796143,725.802673 
	C700.208862,657.629395 710.599060,589.452698 721.000977,521.277710 
	C731.401917,453.107971 741.787781,384.935913 752.215881,316.770325 
	C760.526428,262.446655 768.893311,208.131592 777.229553,153.811874 
	C780.715820,131.095474 784.379517,108.403389 787.526733,85.639999 
	C788.282959,80.170227 790.322937,78.474800 795.693298,78.487862 
	C854.689697,78.631287 913.686523,78.556068 972.683289,78.603050 
	C980.079712,78.608940 980.163818,78.763786 981.471985,87.353416 
	C986.286865,118.970070 991.040283,150.596085 995.817932,182.218430 
	C1004.775269,241.505615 1013.704102,300.797150 1022.699829,360.078522 
	C1031.044800,415.071442 1039.473389,470.051697 1047.843750,525.040771 
	C1058.321167,593.872498 1068.766846,662.709106 1079.253418,731.539429 
	C1080.699097,741.028076 1081.522217,750.638855 1085.405151,759.895020 
	C1085.405151,756.222717 1085.405151,752.550415 1085.405151,748.878113 
	C1085.403931,529.890137 1085.395508,310.902191 1085.416382,91.914246 
	C1085.417847,76.661720 1084.007812,78.621559 1098.759033,78.599388 
	C1144.089722,78.531273 1189.425171,78.960793 1234.749756,78.430855 
	C1262.203613,78.109863 1288.309082,83.977455 1313.872559,92.960785 
	C1364.084106,110.605812 1401.282715,144.124451 1429.358765,188.602676 
	C1431.736938,192.369858 1433.522827,196.655380 1437.310669,200.109833 
	C1439.063599,196.421143 1438.115112,193.481995 1437.769775,190.704330 
	C1433.619263,157.311859 1429.342773,123.935074 1425.089355,90.555412 
	C1424.920898,89.234016 1424.597290,87.931519 1424.447754,86.608704 
	C1423.574707,78.886024 1423.667847,78.615906 1431.391479,78.605293 
	C1475.055786,78.545341 1518.720337,78.652985 1562.383911,78.475906 
	C1567.838867,78.453781 1569.708008,80.280289 1570.430664,85.692169 
	C1576.736206,132.912384 1583.368774,180.088898 1589.869507,227.283157 
	C1598.234619,288.012268 1606.549561,348.748230 1614.920044,409.476593 
	C1621.106812,454.361389 1627.345093,499.239075 1633.572021,544.118347 
	C1633.841431,546.060059 1634.228516,547.985352 1634.916870,551.990723 
	C1638.758057,536.083008 1639.897217,521.826050 1641.887939,507.731445 
	C1649.807739,451.660004 1657.531494,395.560852 1665.280640,339.465424 
	C1672.893311,284.357819 1680.444214,229.241730 1688.031006,174.130569 
	C1692.074463,144.757889 1696.113770,115.384621 1700.204102,86.018463 
	C1701.235474,78.613579 1701.322144,78.580673 1711.046265,78.579346 
	C1801.041260,78.567047 1891.036377,78.571388 1981.031372,78.571106 
	C2018.029419,78.570992 2055.027344,78.571259 2092.025391,78.571877 
	C2094.358643,78.571915 2096.705078,78.737991 2099.022217,78.545372 
	C2103.908691,78.139183 2106.768799,79.665817 2106.109375,85.159706 
	C2105.951660,86.473831 2106.090820,87.823387 2106.090820,89.156647 
	C2106.091064,130.487701 2106.091064,171.818771 2106.090088,213.149826 
	C2106.090088,214.816376 2106.002686,216.486893 2106.088867,218.148666 
	C2106.260986,221.467209 2104.767822,223.095306 2101.427490,223.071472 
	C2098.761475,223.052444 2096.094727,223.116745 2093.428467,223.117035 
	C2058.430420,223.120697 2023.432373,223.118896 1988.434326,223.121002 
	C1986.101196,223.121140 1983.766235,223.204926 1981.435303,223.138535 
	C1977.526001,223.027191 1976.100098,225.055923 1976.294556,228.728806 
	C1976.400146,230.722656 1976.293701,232.727417 1976.293579,234.727249 
	C1976.292358,286.057770 1976.292358,337.388275 1976.293213,388.718781 
	C1976.293213,390.718628 1976.418579,392.726196 1976.285278,394.716705 
	C1976.029175,398.537354 1977.678955,400.234436 1981.526855,399.995270 
	C1983.850830,399.850861 1986.191528,399.979736 1988.524780,399.979797 
	C2024.522827,399.980499 2060.520752,399.978394 2096.518799,399.981384 
	C2106.276855,399.982208 2106.099121,399.162628 2106.095947,408.861115 
	C2106.082520,451.192108 2106.111084,493.523163 2106.071777,535.854126 
	C2106.064209,543.911560 2105.954590,544.024231 2097.861328,544.034790 
	C2061.531494,544.082153 2025.201782,544.059814 1988.871948,544.062439 
	C1986.872070,544.062561 1984.847290,544.264343 1982.877197,544.021790 
	C1977.373535,543.344116 1975.797974,546.135803 1976.277466,551.030945 
	C1976.406860,552.351318 1976.291504,553.695496 1976.291504,555.028748 
	C1976.291626,608.025818 1976.292114,661.022949 1976.293457,714.020020 
	C1976.293457,715.686523 1976.419312,717.362061 1976.288818,719.017761 
	C1975.981445,722.920349 1977.798218,724.467834 1981.583008,724.249084 
	C1983.908203,724.114807 1986.247925,724.235352 1988.581055,724.235474 
	C2024.912476,724.237183 2061.243896,724.213440 2097.575195,724.257019 
	C2105.916992,724.267029 2106.057617,724.372864 2106.066895,732.275757 
	C2106.117188,774.273376 2106.112793,816.271179 2106.071045,858.268860 
	C2106.062988,866.290405 2105.946777,866.421936 2097.760010,866.425110 
	C2012.764648,866.458069 1927.769409,866.437988 1842.774048,866.454773 
	C1832.265503,866.456848 1834.182007,865.632202 1834.180664,855.532715 
	C1834.154785,668.209717 1834.160767,480.886719 1834.160278,293.563721 
	C1834.160156,255.565811 1834.161743,217.567917 1834.162354,179.570007 
	C1834.162476,175.337601 1834.162354,171.105209 1834.162354,166.872803 
	C1833.594482,166.826782 1833.026611,166.780777 1832.458740,166.734756 
	C1829.629761,184.042374 1826.765625,201.344345 1823.977783,218.658585 
	C1811.536011,295.930481 1799.086914,373.201233 1786.696655,450.481384 
	C1775.042480,523.170349 1763.468262,595.872131 1751.841431,668.565552 
	C1741.739258,731.726929 1731.624634,794.886292 1721.483398,858.041443 
	C1720.148560,866.353943 1720.060303,866.426086 1711.436401,866.431091 
	C1661.105835,866.460205 1610.775391,866.458923 1560.444824,866.432922 
	C1551.543213,866.428345 1551.606445,866.341492 1550.066162,857.207336 
	C1534.947876,767.546814 1519.795898,677.892029 1504.675781,588.231812 
	C1493.817627,523.845825 1482.994629,459.453949 1472.147095,395.066223 
	C1471.928467,393.768494 1471.600464,392.489258 1471.250610,390.862518 
	C1467.967163,393.537872 1468.829468,397.073730 1468.576172,400.129059 
	C1463.356079,463.105103 1436.093872,514.771057 1388.276611,555.637573 
	C1383.306519,559.885254 1383.554688,563.296875 1385.102539,568.496643 
	C1408.282471,646.364380 1431.326294,724.272705 1454.405518,802.170410 
	C1459.799316,820.375854 1465.200562,838.579102 1470.611084,856.779541 
	C1471.458862,859.631714 1472.713013,862.409973 1472.103271,865.493774 
	C1468.847412,867.117004 1465.455078,866.408264 1462.177246,866.412537 
	C1422.179443,866.464905 1382.181641,866.497375 1342.184082,866.408630 
	C1332.288452,866.386719 1332.652466,868.473206 1329.584229,856.894775 
	C1308.430664,777.070435 1287.164795,697.275940 1265.932373,617.472595 
	C1265.332764,615.219055 1264.505127,613.005981 1264.131104,610.717224 
	C1263.496948,606.837646 1261.422485,605.982788 1257.758789,606.646606 
	C1250.225708,608.011719 1242.656128,609.258972 1235.052124,610.116394 
	C1230.720825,610.604797 1229.362793,612.726929 1229.615112,616.698242 
	C1229.762817,619.021973 1229.637817,621.362915 1229.637817,623.696106 
	C1229.637573,699.691895 1229.637695,775.687744 1229.637817,851.683533 
	C1229.637817,853.683411 1229.658691,855.683594 1229.633301,857.683167 
	C1229.523804,866.319153 1229.518799,866.425537 1220.824219,866.428284 
	C1135.495605,866.454895 1050.166992,866.431641 964.838379,866.462830 
	C957.320618,866.465576 956.631653,866.563965 955.575439,858.489136 
	C951.211121,825.123718 946.436218,791.812012 941.808044,758.481140 
	C941.578918,756.830933 941.335510,755.181946 941.056641,753.539490 
	C939.688843,745.484802 939.683960,745.357239 931.965698,745.344360 
	C899.967590,745.291077 867.969299,745.332703 835.971069,745.315125 
	C827.526978,745.310486 828.333496,746.385010 827.466125,752.960022 
	C823.065369,786.318726 818.486023,819.653748 813.973999,852.997803 
	C813.839966,853.988342 813.800171,854.992432 813.646240,855.979248 
	C811.711304,868.382080 812.696960,866.407349 801.537842,866.414856 
	C716.209229,866.472412 630.880615,866.446289 545.552002,866.445801 
	C543.885437,866.445801 542.198303,866.271362 540.556030,866.469849 
	C535.094788,867.129761 533.819946,864.422668 533.962280,859.468445 
	C534.249451,849.477234 534.045532,839.471985 534.045654,829.472534 
	C534.046692,724.811646 534.048035,620.150696 534.049255,515.489807 
	C534.049316,510.834045 534.049255,506.178284 534.049255,501.522522 
	C529.586670,512.252136 528.484741,523.605652 526.581360,534.744141 
	C509.526520,634.547913 492.666046,734.384888 475.746765,834.211914 
	C474.355042,842.423279 473.007416,850.642639 471.537201,858.840027 
	C470.203979,866.273499 470.142944,866.396179 462.770294,866.422546 
	C442.438354,866.495239 422.105835,866.484009 401.773804,866.424927 
	C393.801727,866.401733 393.751068,866.312317 392.359283,858.398193 
	C388.898560,838.719360 385.510345,819.027710 382.054962,799.347961 
	C366.328491,709.780701 350.593292,620.214966 334.847748,530.651123 
	C333.133209,520.898560 331.331635,511.161255 327.916595,501.528320 
	C327.916595,506.343292 327.916565,511.158234 327.916595,515.973206 
	C327.917328,628.633667 327.938629,741.294128 327.892029,853.954590 
	C327.886383,867.588928 329.800293,866.416260 315.872803,866.430725 
	C275.875061,866.472351 235.877243,866.444641 195.879456,866.444031 
	C194.212891,866.444031 192.534988,866.317261 190.881866,866.466064 
	C186.041870,866.901794 183.093704,865.509521 183.881638,859.906433 
	C184.111420,858.272461 183.912003,856.578308 183.912003,854.911743 
	C183.911728,599.925781 183.911713,344.939789 183.912308,89.953812 
	C183.912323,87.953934 184.024567,85.947777 183.903503,83.955536 
	C183.672531,80.154266 185.323532,78.381371 189.169067,78.579201 
	C191.163132,78.681778 193.167679,78.572105 195.167496,78.572098 
	C248.831161,78.572029 302.494843,78.573746 356.158508,78.575241 
	C357.491760,78.575279 358.839722,78.704407 360.155670,78.553856 
	C365.035492,77.995560 367.248535,79.894859 368.001343,84.993294 
	C371.844666,111.022980 376.008514,137.005569 380.102142,162.998032 
	C389.014526,219.587433 397.961670,276.171356 406.876740,332.760315 
	C413.927094,377.512970 420.942932,422.270996 428.001007,467.022430 
	C428.565002,470.598389 429.338318,474.141327 431.744720,477.784119 
	C443.143311,407.491211 454.541931,337.198273 466.053650,266.040649 
z"/>
<path fill="#FFFEFE" opacity="1.000000" stroke="none" 
	d="
M2391.291504,724.265747 
	C2394.020752,724.449463 2395.546143,725.083008 2395.670898,727.111938 
	C2395.854492,730.099854 2395.896240,733.100037 2395.897217,736.095032 
	C2395.911377,775.757080 2395.907471,815.419189 2395.906006,855.081238 
	C2395.905762,857.414185 2395.835205,859.748230 2395.885498,862.079895 
	C2395.947266,864.946106 2394.632080,866.388611 2391.743408,866.390137 
	C2389.410645,866.391418 2387.077881,866.445679 2384.745117,866.445801 
	C2303.421143,866.449463 2222.097412,866.449585 2140.773438,866.449280 
	C2139.106934,866.449280 2137.414307,866.248169 2135.778564,866.470032 
	C2130.213135,867.224915 2128.792725,864.328491 2129.229248,859.473633 
	C2129.407715,857.490112 2129.253906,855.476807 2129.253906,853.477051 
	C2129.253906,599.506531 2129.250000,345.535980 2129.266113,91.565437 
	C2129.267090,77.119667 2127.958740,78.608688 2142.002197,78.593750 
	C2181.331055,78.551918 2220.659668,78.578384 2259.988525,78.579605 
	C2262.321533,78.579674 2264.661865,78.716179 2266.985840,78.575264 
	C2270.811035,78.343330 2272.522217,79.990623 2272.330322,83.839722 
	C2272.197998,86.499222 2272.317871,89.171089 2272.317871,91.837425 
	C2272.318604,298.480103 2272.306885,505.122803 2272.343262,711.765503 
	C2272.345703,725.577026 2270.550293,724.191589 2284.366211,724.214294 
	C2319.695312,724.272400 2355.024658,724.238220 2391.291504,724.265747 
z"/>
<path fill="#EB1A23" opacity="1.000000" stroke="none" 
	d="
M695.148560,1636.949341 
	C681.687256,1622.505493 678.007874,1605.457275 679.377258,1587.319702 
	C681.528198,1558.831665 692.323303,1533.026978 706.211060,1508.463989 
	C716.410156,1490.425171 728.529297,1473.721069 742.745178,1458.564331 
	C751.267273,1449.478027 760.586670,1441.565063 772.152344,1436.594238 
	C792.067810,1428.035034 808.142456,1434.088135 817.651367,1453.725586 
	C822.690063,1464.131592 825.241394,1475.120605 824.479187,1486.647583 
	C822.351562,1518.824951 816.031982,1550.029541 801.832214,1579.261841 
	C790.988403,1601.585449 775.177795,1619.859741 755.497803,1634.782349 
	C748.278503,1640.256592 740.059509,1644.073364 731.120361,1645.917114 
	C718.039612,1648.615234 705.899841,1646.942383 695.148560,1636.949341 
z"/>
<path fill="#EA2429" opacity="1.000000" stroke="none" 
	d="
M1287.367920,240.562744 
	C1305.859131,257.391785 1315.585205,278.282898 1320.761597,301.518646 
	C1329.173828,339.279480 1327.332275,376.385681 1311.968628,412.211609 
	C1301.159668,437.416626 1283.903931,456.478760 1257.526733,466.206940 
	C1250.286621,468.877197 1242.772461,470.190155 1235.216187,471.441986 
	C1231.537231,472.051422 1229.375366,471.148376 1229.642334,466.936127 
	C1229.768555,464.945099 1229.638184,462.938354 1229.638184,460.938721 
	C1229.636597,383.949829 1229.636841,306.960907 1229.636719,229.972000 
	C1229.636719,229.305435 1229.628052,228.638733 1229.637573,227.972305 
	C1229.760010,219.412476 1229.780640,219.217010 1238.681030,220.121811 
	C1256.699219,221.953552 1272.872803,228.406387 1287.367920,240.562744 
z"/>
<path fill="#EA262C" opacity="1.000000" stroke="none" 
	d="
M873.006775,382.873749 
	C876.725342,351.626099 880.280151,321.263855 883.834900,290.901611 
	C884.420532,290.901337 885.006104,290.901062 885.591675,290.900787 
	C898.974548,400.197418 912.357422,509.494019 925.703430,618.489685 
	C923.341431,620.582642 920.922668,620.136292 918.638855,620.139404 
	C896.994995,620.168701 875.351074,620.195984 853.707397,620.138794 
	C845.463257,620.117004 845.278809,619.995422 846.201111,611.875122 
	C849.544617,582.439819 853.010986,553.018433 856.453491,523.594421 
	C861.907166,476.981567 867.378906,430.370819 873.006775,382.873749 
z"/>
</svg>